<?xml version="1.0" standalone="no"?>
<!DOCTYPE svg PUBLIC "-//W3C//DTD SVG 20010904//EN"
 "http://www.w3.org/TR/2001/REC-SVG-20010904/DTD/svg10.dtd">
<svg version="1.0" xmlns="http://www.w3.org/2000/svg"
 width="432.000000pt" height="432.000000pt" viewBox="0 0 432.000000 432.000000"
 preserveAspectRatio="xMidYMid meet">

<g transform="translate(0.000000,432.000000) scale(0.100000,-0.100000)"
fill="#000000" stroke="none">
<path d="M1510 4271 c-36 -27 -82 -69 -102 -93 -40 -49 -118 -167 -118 -178 0
-4 28 -18 62 -30 35 -13 125 -54 201 -91 77 -38 145 -69 151 -69 19 0 69 59
119 140 25 41 73 109 106 150 33 41 61 77 61 80 0 10 -105 67 -170 93 -63 25
-167 47 -220 47 -14 0 -53 -21 -90 -49z"/>
<path d="M2604 4305 c-67 -15 -189 -63 -246 -98 l-37 -23 45 -55 c26 -30 79
-103 119 -164 111 -166 105 -160 150 -145 20 7 87 38 149 69 61 32 139 66 174
76 34 10 62 24 62 31 0 20 -100 167 -148 217 -103 107 -141 120 -268 92z"/>
<path d="M2093 4011 c-98 -82 -232 -220 -253 -261 l-20 -39 63 -49 c63 -51
172 -161 239 -242 l38 -45 32 40 c42 53 224 235 267 267 33 25 34 27 21 60 -8
18 -39 60 -70 92 -66 71 -238 226 -250 226 -5 0 -35 -22 -67 -49z"/>
<path d="M815 3823 c-52 -7 -137 -34 -188 -59 -42 -22 -53 -34 -78 -88 -38
-81 -59 -180 -59 -282 l0 -81 77 13 c42 8 139 18 215 23 76 6 147 15 157 21
21 10 24 32 36 230 3 52 12 125 19 163 l13 67 -81 -1 c-45 -1 -94 -4 -111 -6z"/>
<path d="M3314 3813 c14 -50 27 -153 36 -282 6 -98 13 -149 23 -158 9 -9 62
-17 173 -23 87 -6 188 -16 223 -24 l64 -14 -5 111 c-6 121 -41 253 -81 304
-44 55 -210 103 -357 103 -73 0 -81 -2 -76 -17z"/>
<path d="M1171 3718 c-50 -151 -81 -279 -81 -333 l0 -50 118 -23 c64 -12 168
-40 230 -60 61 -21 112 -37 112 -36 0 1 7 39 16 85 20 105 49 213 80 296 13
35 24 67 24 71 -1 29 -263 114 -422 136 l-46 7 -31 -93z"/>
<path d="M3003 3790 c-177 -32 -282 -67 -351 -116 -2 -1 14 -55 36 -121 22
-65 47 -158 56 -208 9 -49 19 -100 21 -112 l5 -22 58 24 c76 31 270 82 345 91
l57 6 0 52 c0 73 -99 428 -119 425 -3 0 -52 -9 -108 -19z"/>
<path d="M1741 3493 c-30 -92 -71 -283 -71 -321 1 -10 28 -34 68 -59 37 -23
102 -71 145 -108 47 -40 77 -60 77 -50 0 30 43 141 87 227 l46 86 -24 33 c-62
87 -264 289 -290 289 -4 0 -21 -44 -38 -97z"/>
<path d="M2467 3533 c-67 -59 -175 -174 -215 -230 l-22 -32 40 -80 c34 -67 65
-143 95 -229 3 -9 24 3 62 38 32 28 95 75 140 103 69 44 82 56 83 79 0 45 -38
230 -64 304 -32 93 -37 104 -45 104 -4 0 -37 -26 -74 -57z"/>
<path d="M773 3200 c-56 -15 -138 -40 -183 -55 l-81 -27 7 -46 c13 -96 84
-354 106 -385 12 -18 22 -33 24 -35 1 -2 55 15 120 37 111 37 250 71 291 71
45 1 46 13 9 122 -37 107 -76 271 -76 321 0 26 -1 27 -57 26 -32 0 -104 -13
-160 -29z"/>
<path d="M3354 3220 c-16 -6 -23 -20 -28 -62 -9 -69 -52 -236 -82 -316 -29
-76 -29 -82 -3 -82 49 0 230 -44 326 -79 l104 -39 25 37 c25 39 100 313 106
391 l3 43 -70 24 c-122 42 -306 93 -333 92 -15 0 -36 -4 -48 -9z"/>
<path d="M1115 3169 c14 -82 53 -224 84 -305 l31 -81 123 -11 c67 -6 146 -17
175 -25 59 -16 58 -19 37 68 -8 33 -18 108 -22 167 l-6 107 -86 34 c-84 34
-212 69 -300 82 l-43 7 7 -43z"/>
<path d="M3105 3194 c-84 -18 -313 -93 -321 -105 -3 -5 -9 -59 -15 -121 -5
-62 -15 -139 -23 -170 -7 -32 -13 -58 -12 -58 0 0 33 7 71 15 39 8 118 18 177
21 122 8 109 -4 159 142 25 73 69 253 69 282 0 13 -19 12 -105 -6z"/>
<path d="M2127 3093 c-33 -76 -53 -136 -68 -209 -12 -57 -11 -61 13 -99 14
-22 31 -56 38 -76 12 -32 16 -36 48 -34 33 2 37 7 75 79 l40 77 -20 83 c-22
88 -80 236 -93 236 -4 0 -19 -26 -33 -57z"/>
<path d="M249 2987 c-100 -64 -136 -96 -196 -172 l-55 -70 6 -69 c8 -83 45
-198 93 -287 l36 -66 78 63 c44 35 123 92 177 127 53 35 103 70 110 79 16 19
4 53 -72 207 -31 63 -66 140 -77 172 -12 33 -24 59 -28 59 -3 0 -36 -20 -72
-43z"/>
<path d="M3951 2923 c-24 -60 -59 -136 -77 -170 -51 -93 -67 -142 -52 -161 7
-9 58 -44 113 -80 55 -36 133 -91 172 -123 40 -33 75 -59 78 -59 10 0 83 157
103 222 12 36 24 94 28 128 6 59 6 63 -31 116 -45 65 -128 139 -218 194 -37
22 -68 40 -70 40 -2 0 -22 -48 -46 -107z"/>
<path d="M1665 2953 c8 -83 29 -177 50 -230 13 -32 31 -50 90 -87 68 -43 76
-46 91 -32 8 9 20 16 25 16 5 0 7 39 5 89 -3 82 -6 92 -35 128 -45 56 -201
183 -225 183 -4 0 -5 -30 -1 -67z"/>
<path d="M2585 2976 c-33 -24 -90 -74 -126 -112 l-66 -69 -2 -86 c-1 -83 0
-87 25 -104 25 -16 27 -16 68 13 22 16 55 37 73 45 25 13 35 29 51 79 32 98
60 278 44 278 -5 0 -35 -20 -67 -44z"/>
<path d="M1311 2639 c27 -51 89 -127 150 -183 l64 -58 93 -4 c74 -4 92 -2 92
9 0 8 6 20 14 26 11 10 5 24 -36 86 -40 60 -57 77 -91 89 -55 21 -156 43 -235
51 l-64 7 13 -23z"/>
<path d="M2920 2649 c-41 -5 -112 -20 -157 -34 -72 -22 -84 -29 -104 -63 -12
-20 -35 -53 -51 -73 -24 -32 -26 -38 -13 -49 8 -7 15 -18 15 -26 0 -10 21 -13
92 -11 l93 2 69 65 c60 56 156 176 156 194 0 3 -6 5 -12 5 -7 -1 -47 -5 -88
-10z"/>
<path d="M998 2630 c-48 -10 -104 -24 -125 -30 -90 -29 -143 -52 -143 -61 0
-15 187 -205 257 -261 l63 -50 53 31 c44 25 152 70 250 104 15 6 10 17 -40 74
-32 38 -78 100 -103 140 -44 70 -46 72 -85 72 -22 0 -79 -9 -127 -19z"/>
<path d="M3113 2582 c-23 -37 -71 -101 -107 -143 l-65 -76 54 -12 c29 -7 104
-37 164 -67 l111 -56 63 51 c67 53 257 245 257 260 0 20 -337 111 -410 111
-20 0 -33 -13 -67 -68z"/>
<path d="M564 2474 c-41 -24 -223 -205 -278 -277 l-28 -37 25 -32 c13 -18 73
-84 132 -146 94 -98 162 -152 193 -152 5 0 41 38 81 85 40 47 115 122 166 166
l94 81 -52 41 c-59 47 -170 155 -243 238 l-49 56 -41 -23z"/>
<path d="M3669 2452 c-41 -58 -211 -228 -262 -262 -20 -14 -37 -27 -37 -30 0
-3 16 -16 35 -29 43 -29 186 -167 253 -245 l51 -59 41 18 c39 18 194 169 274
268 l38 47 -35 43 c-87 107 -233 250 -277 272 l-47 24 -34 -47z"/>
<path d="M2099 2434 c-50 -9 -133 -68 -166 -117 -66 -99 -66 -215 0 -314 106
-158 350 -156 456 4 95 144 36 343 -123 411 -31 14 -127 23 -167 16z"/>
<path d="M1375 2246 c-86 -24 -205 -74 -205 -86 0 -15 172 -81 246 -95 l74
-15 76 41 c71 37 77 43 79 73 2 32 -1 35 -72 70 -40 20 -83 36 -96 35 -12 0
-58 -11 -102 -23z"/>
<path d="M2745 2231 c-66 -34 -70 -38 -70 -71 0 -34 2 -36 80 -73 l80 -37 82
20 c87 21 233 78 233 90 0 21 -272 113 -320 108 -8 0 -47 -17 -85 -37z"/>
<path d="M1005 2058 c-112 -91 -275 -255 -275 -277 0 -17 273 -91 390 -105
l45 -6 37 63 c20 34 66 97 102 140 41 47 62 79 54 81 -74 22 -157 56 -225 92
-46 24 -84 44 -86 44 -1 0 -20 -14 -42 -32z"/>
<path d="M3223 2065 c-34 -21 -182 -83 -256 -109 -16 -5 -12 -14 33 -63 48
-55 134 -177 147 -208 7 -19 49 -19 154 1 84 16 252 66 278 83 18 12 -6 46
-110 151 -61 63 -189 170 -201 170 -2 0 -22 -11 -45 -25z"/>
<path d="M91 1923 c-48 -96 -78 -193 -87 -277 -6 -60 -5 -66 24 -107 44 -64
158 -170 230 -213 35 -21 65 -37 67 -35 1 2 19 45 38 94 19 50 54 128 77 175
23 46 48 101 55 121 13 35 12 38 -13 61 -15 14 -72 54 -127 90 -55 35 -128 88
-162 116 l-63 52 -39 -77z"/>
<path d="M4125 1947 c-33 -28 -100 -76 -150 -108 -104 -67 -165 -116 -165
-134 0 -6 27 -67 60 -134 33 -67 74 -157 91 -199 17 -42 32 -79 34 -81 8 -8
174 109 219 155 60 60 106 130 106 161 0 82 -59 267 -113 354 l-22 37 -60 -51z"/>
<path d="M1592 1923 l-72 -4 -65 -60 c-66 -62 -162 -186 -151 -196 9 -10 170
15 251 38 l77 23 49 74 c47 72 48 75 33 103 -8 17 -22 28 -32 27 -9 -1 -50 -4
-90 -5z"/>
<path d="M2603 1903 c-12 -24 -9 -32 34 -99 38 -61 54 -76 87 -89 81 -30 296
-66 296 -50 0 24 -108 156 -181 223 -38 33 -42 35 -132 38 -91 4 -92 4 -104
-23z"/>
<path d="M1800 1684 c-35 -24 -70 -55 -77 -69 -29 -54 -75 -315 -56 -315 18 0
144 103 199 163 l59 62 2 90 c2 89 2 90 -24 103 -15 6 -29 11 -32 11 -4 -1
-35 -21 -71 -45z"/>
<path d="M2412 1712 c-20 -16 -22 -25 -20 -101 1 -82 2 -86 37 -125 65 -73
200 -185 224 -186 17 0 -15 209 -44 286 -17 46 -27 57 -73 84 -30 16 -59 37
-66 45 -16 19 -30 19 -58 -3z"/>
<path d="M620 1635 c-21 -34 -91 -293 -104 -386 l-7 -47 83 -30 c129 -46 290
-84 344 -80 l48 3 23 115 c21 105 72 280 94 322 8 14 3 18 -28 23 -82 13 -262
59 -340 86 -45 16 -84 29 -86 29 -3 0 -15 -16 -27 -35z"/>
<path d="M3535 1629 c-60 -20 -150 -45 -200 -54 -137 -26 -127 -19 -105 -70
29 -68 61 -180 84 -300 l22 -110 47 -3 c65 -4 427 96 427 118 0 20 -43 214
-66 299 -27 100 -60 162 -84 159 -8 0 -64 -18 -125 -39z"/>
<path d="M2086 1566 c-38 -79 -38 -81 -26 -135 22 -100 84 -261 100 -261 12 0
71 151 92 235 l20 81 -36 68 c-20 37 -36 73 -36 81 0 8 -13 12 -38 11 -37 -1
-38 -2 -76 -80z"/>
<path d="M2740 1582 c0 -3 7 -39 15 -81 9 -42 19 -119 23 -171 l7 -95 77 -33
c76 -32 220 -73 306 -86 l44 -7 -7 43 c-13 77 -55 228 -85 307 l-30 78 -123
11 c-67 6 -146 17 -174 25 -29 8 -53 12 -53 9z"/>
<path d="M1505 1564 c-33 -7 -108 -16 -167 -20 l-107 -7 -19 -46 c-47 -109
-112 -364 -97 -379 16 -16 368 80 409 112 10 8 18 48 25 131 6 66 17 144 25
173 10 38 11 52 3 51 -7 -1 -39 -8 -72 -15z"/>
<path d="M2347 1316 c-10 -33 -41 -107 -69 -163 l-51 -103 29 -37 c67 -88 262
-283 284 -283 16 0 92 282 104 385 l6 50 -84 53 c-45 30 -109 78 -142 107
l-60 53 -17 -62z"/>
<path d="M1895 1323 c-52 -47 -176 -134 -209 -146 -17 -7 -18 -15 -12 -76 10
-116 84 -371 106 -371 15 0 195 176 255 250 l56 69 -40 73 c-21 40 -52 109
-67 153 -15 44 -30 83 -33 87 -3 3 -28 -14 -56 -39z"/>
<path d="M1500 1088 c-66 -29 -275 -84 -347 -93 l-63 -7 0 -51 c0 -55 31 -183
81 -335 l31 -93 46 7 c101 14 354 84 385 105 18 13 33 23 35 25 2 1 -15 55
-37 120 -22 66 -49 168 -60 228 -12 61 -23 111 -24 112 -1 1 -22 -7 -47 -18z"/>
<path d="M2767 1094 c-4 -4 -7 -19 -7 -33 0 -39 -55 -256 -84 -334 -14 -37
-26 -72 -26 -77 0 -30 259 -115 417 -136 l51 -6 31 93 c73 221 100 374 69 383
-7 2 -52 11 -100 20 -70 13 -209 52 -328 92 -9 3 -19 2 -23 -2z"/>
<path d="M490 921 c0 -99 18 -188 57 -280 25 -61 29 -65 88 -92 79 -36 194
-59 293 -59 l79 0 -14 73 c-7 39 -18 135 -23 212 -5 77 -12 150 -16 162 -7 24
-18 25 -224 38 -52 3 -128 12 -167 19 l-73 12 0 -85z"/>
<path d="M3750 994 c-36 -7 -134 -17 -219 -23 -85 -5 -158 -14 -164 -20 -5 -5
-14 -72 -18 -148 -9 -128 -17 -199 -35 -280 l-6 -33 75 0 c102 0 214 23 291
60 58 27 67 36 90 84 14 30 33 83 41 118 18 76 32 259 19 257 -5 -1 -38 -7
-74 -15z"/>
<path d="M2085 862 c-63 -77 -182 -190 -243 -234 -23 -16 -23 -17 -6 -49 21
-43 74 -101 187 -207 139 -130 122 -127 221 -43 110 94 218 208 236 250 12 31
12 35 -6 48 -72 52 -173 146 -235 220 -40 49 -75 91 -78 94 -4 4 -37 -32 -76
-79z"/>
<path d="M1669 495 c-20 -7 -71 -32 -113 -55 -42 -23 -117 -56 -167 -74 -49
-18 -90 -36 -91 -40 0 -4 17 -37 38 -73 46 -78 139 -182 202 -225 l45 -31 82
11 c87 11 209 54 286 100 l47 27 -64 79 c-34 43 -79 106 -100 140 -56 92 -104
156 -117 155 -7 0 -28 -6 -48 -14z"/>
<path d="M2567 472 c-15 -20 -50 -73 -78 -116 -28 -43 -75 -109 -105 -146 -30
-37 -54 -70 -54 -73 0 -12 130 -77 202 -101 41 -14 106 -28 144 -32 l69 -6 60
44 c63 46 138 134 193 226 18 29 32 54 32 56 0 2 -28 14 -62 26 -35 13 -125
54 -201 91 -77 38 -147 69 -156 69 -9 -1 -29 -18 -44 -38z"/>
</g>
</svg>
